<mxfile host="app.diagrams.net" modified="2020-06-01T05:15:46.473Z" agent="5.0 (Windows NT 10.0; Win64; x64) AppleWebKit/537.36 (KHTML, like Gecko) Chrome/83.0.4103.61 Safari/537.36" etag="EN6dF2FV2deWx_5vm43N" version="13.1.11" type="github">
  <diagram id="lu4mECETVbZfv42iSqlW" name="第 1 页">
    <mxGraphModel dx="1667" dy="896" grid="1" gridSize="10" guides="1" tooltips="1" connect="1" arrows="1" fold="1" page="1" pageScale="1" pageWidth="1600" pageHeight="900" math="0" shadow="0">
      <root>
        <mxCell id="0" />
        <mxCell id="1" parent="0" />
        <mxCell id="3vfq-Jgj89YRfOBCcQOT-6" value="坑洼跟踪和修复系统" style="rounded=0;whiteSpace=wrap;html=1;" parent="1" vertex="1">
          <mxGeometry x="835" y="110" width="110" height="60" as="geometry" />
        </mxCell>
        <mxCell id="3vfq-Jgj89YRfOBCcQOT-7" value="处理坑洼坑洼信息" style="rounded=0;whiteSpace=wrap;html=1;" parent="1" vertex="1">
          <mxGeometry x="340" y="280" width="120" height="60" as="geometry" />
        </mxCell>
        <mxCell id="3vfq-Jgj89YRfOBCcQOT-12" value="" style="endArrow=none;html=1;entryX=0.25;entryY=1;entryDx=0;entryDy=0;exitX=0.5;exitY=0;exitDx=0;exitDy=0;" parent="1" source="3vfq-Jgj89YRfOBCcQOT-7" target="3vfq-Jgj89YRfOBCcQOT-6" edge="1">
          <mxGeometry width="50" height="50" relative="1" as="geometry">
            <mxPoint x="720" y="290" as="sourcePoint" />
            <mxPoint x="770" y="240" as="targetPoint" />
          </mxGeometry>
        </mxCell>
        <mxCell id="3vfq-Jgj89YRfOBCcQOT-13" value="计算损害信息" style="rounded=0;whiteSpace=wrap;html=1;" parent="1" vertex="1">
          <mxGeometry x="830" y="270" width="120" height="60" as="geometry" />
        </mxCell>
        <mxCell id="3vfq-Jgj89YRfOBCcQOT-14" value="处理维修信息" style="rounded=0;whiteSpace=wrap;html=1;" parent="1" vertex="1">
          <mxGeometry x="1290" y="270" width="120" height="60" as="geometry" />
        </mxCell>
        <mxCell id="3vfq-Jgj89YRfOBCcQOT-16" value="输入坑洼登记信息和市民信息" style="rounded=0;whiteSpace=wrap;html=1;" parent="1" vertex="1">
          <mxGeometry x="160" y="435" width="120" height="70" as="geometry" />
        </mxCell>
        <mxCell id="3vfq-Jgj89YRfOBCcQOT-17" value="添加标号并设置处理优先级" style="rounded=0;whiteSpace=wrap;html=1;" parent="1" vertex="1">
          <mxGeometry x="330" y="440" width="120" height="60" as="geometry" />
        </mxCell>
        <mxCell id="3vfq-Jgj89YRfOBCcQOT-18" value="输出坑洼信息表" style="rounded=0;whiteSpace=wrap;html=1;" parent="1" vertex="1">
          <mxGeometry x="490" y="440" width="120" height="60" as="geometry" />
        </mxCell>
        <mxCell id="3vfq-Jgj89YRfOBCcQOT-19" value="读入工单数据并标记损害信息" style="rounded=0;whiteSpace=wrap;html=1;" parent="1" vertex="1">
          <mxGeometry x="680" y="440" width="120" height="60" as="geometry" />
        </mxCell>
        <mxCell id="3vfq-Jgj89YRfOBCcQOT-20" value="计算损害钱数" style="rounded=0;whiteSpace=wrap;html=1;" parent="1" vertex="1">
          <mxGeometry x="840" y="440" width="120" height="60" as="geometry" />
        </mxCell>
        <mxCell id="3vfq-Jgj89YRfOBCcQOT-21" value="生成损害文件" style="rounded=0;whiteSpace=wrap;html=1;" parent="1" vertex="1">
          <mxGeometry x="990" y="440" width="120" height="60" as="geometry" />
        </mxCell>
        <mxCell id="3vfq-Jgj89YRfOBCcQOT-22" value="读入坑洼信息表" style="rounded=0;whiteSpace=wrap;html=1;" parent="1" vertex="1">
          <mxGeometry x="1210" y="430" width="120" height="60" as="geometry" />
        </mxCell>
        <mxCell id="3vfq-Jgj89YRfOBCcQOT-23" value="处理并生成调派单" style="rounded=0;whiteSpace=wrap;html=1;" parent="1" vertex="1">
          <mxGeometry x="1390" y="430" width="120" height="60" as="geometry" />
        </mxCell>
        <mxCell id="3vfq-Jgj89YRfOBCcQOT-24" value="计算开销" style="rounded=0;whiteSpace=wrap;html=1;" parent="1" vertex="1">
          <mxGeometry x="1390" y="570" width="120" height="60" as="geometry" />
        </mxCell>
        <mxCell id="3vfq-Jgj89YRfOBCcQOT-25" value="" style="endArrow=none;html=1;exitX=0.5;exitY=0;exitDx=0;exitDy=0;entryX=0.5;entryY=1;entryDx=0;entryDy=0;" parent="1" source="3vfq-Jgj89YRfOBCcQOT-13" target="3vfq-Jgj89YRfOBCcQOT-6" edge="1">
          <mxGeometry width="50" height="50" relative="1" as="geometry">
            <mxPoint x="835" y="220" as="sourcePoint" />
            <mxPoint x="885" y="170" as="targetPoint" />
          </mxGeometry>
        </mxCell>
        <mxCell id="3vfq-Jgj89YRfOBCcQOT-26" value="" style="endArrow=none;html=1;exitX=0.5;exitY=0;exitDx=0;exitDy=0;entryX=0.864;entryY=1;entryDx=0;entryDy=0;entryPerimeter=0;" parent="1" source="3vfq-Jgj89YRfOBCcQOT-14" target="3vfq-Jgj89YRfOBCcQOT-6" edge="1">
          <mxGeometry width="50" height="50" relative="1" as="geometry">
            <mxPoint x="900" y="280" as="sourcePoint" />
            <mxPoint x="910" y="190" as="targetPoint" />
          </mxGeometry>
        </mxCell>
        <mxCell id="3vfq-Jgj89YRfOBCcQOT-27" value="" style="endArrow=none;html=1;exitX=0.5;exitY=0;exitDx=0;exitDy=0;" parent="1" source="3vfq-Jgj89YRfOBCcQOT-16" edge="1">
          <mxGeometry width="50" height="50" relative="1" as="geometry">
            <mxPoint x="370" y="435" as="sourcePoint" />
            <mxPoint x="360" y="340" as="targetPoint" />
          </mxGeometry>
        </mxCell>
        <mxCell id="3vfq-Jgj89YRfOBCcQOT-28" value="" style="endArrow=none;html=1;exitX=0.6;exitY=-0.05;exitDx=0;exitDy=0;exitPerimeter=0;entryX=0.517;entryY=1;entryDx=0;entryDy=0;entryPerimeter=0;" parent="1" source="3vfq-Jgj89YRfOBCcQOT-17" target="3vfq-Jgj89YRfOBCcQOT-7" edge="1">
          <mxGeometry width="50" height="50" relative="1" as="geometry">
            <mxPoint x="384.5900000000001" y="440" as="sourcePoint" />
            <mxPoint x="410" y="350" as="targetPoint" />
          </mxGeometry>
        </mxCell>
        <mxCell id="3vfq-Jgj89YRfOBCcQOT-29" value="" style="endArrow=none;html=1;exitX=0.5;exitY=0;exitDx=0;exitDy=0;entryX=0.75;entryY=1;entryDx=0;entryDy=0;" parent="1" source="3vfq-Jgj89YRfOBCcQOT-18" target="3vfq-Jgj89YRfOBCcQOT-7" edge="1">
          <mxGeometry width="50" height="50" relative="1" as="geometry">
            <mxPoint x="409.1700000000001" y="720" as="sourcePoint" />
            <mxPoint x="409.1700000000001" y="620" as="targetPoint" />
          </mxGeometry>
        </mxCell>
        <mxCell id="3vfq-Jgj89YRfOBCcQOT-30" value="" style="endArrow=none;html=1;exitX=0.406;exitY=-0.022;exitDx=0;exitDy=0;entryX=0.5;entryY=1;entryDx=0;entryDy=0;exitPerimeter=0;" parent="1" source="3vfq-Jgj89YRfOBCcQOT-20" edge="1">
          <mxGeometry width="50" height="50" relative="1" as="geometry">
            <mxPoint x="889.1700000000001" y="430" as="sourcePoint" />
            <mxPoint x="889.1700000000001" y="330" as="targetPoint" />
          </mxGeometry>
        </mxCell>
        <mxCell id="3vfq-Jgj89YRfOBCcQOT-31" value="" style="endArrow=none;html=1;exitX=0.5;exitY=0;exitDx=0;exitDy=0;" parent="1" source="3vfq-Jgj89YRfOBCcQOT-19" edge="1">
          <mxGeometry width="50" height="50" relative="1" as="geometry">
            <mxPoint x="860" y="420" as="sourcePoint" />
            <mxPoint x="860" y="330" as="targetPoint" />
          </mxGeometry>
        </mxCell>
        <mxCell id="3vfq-Jgj89YRfOBCcQOT-32" value="" style="endArrow=none;html=1;exitX=0.5;exitY=0;exitDx=0;exitDy=0;entryX=0.75;entryY=1;entryDx=0;entryDy=0;" parent="1" source="3vfq-Jgj89YRfOBCcQOT-21" target="3vfq-Jgj89YRfOBCcQOT-13" edge="1">
          <mxGeometry width="50" height="50" relative="1" as="geometry">
            <mxPoint x="439.1700000000001" y="750" as="sourcePoint" />
            <mxPoint x="439.1700000000001" y="650" as="targetPoint" />
          </mxGeometry>
        </mxCell>
        <mxCell id="3vfq-Jgj89YRfOBCcQOT-33" value="" style="endArrow=none;html=1;exitX=0.5;exitY=0;exitDx=0;exitDy=0;entryX=0.25;entryY=1;entryDx=0;entryDy=0;" parent="1" source="3vfq-Jgj89YRfOBCcQOT-22" target="3vfq-Jgj89YRfOBCcQOT-14" edge="1">
          <mxGeometry width="50" height="50" relative="1" as="geometry">
            <mxPoint x="990.0000000000001" y="720" as="sourcePoint" />
            <mxPoint x="990.0000000000001" y="620" as="targetPoint" />
          </mxGeometry>
        </mxCell>
        <mxCell id="3vfq-Jgj89YRfOBCcQOT-34" value="" style="endArrow=none;html=1;exitX=0.5;exitY=0;exitDx=0;exitDy=0;entryX=0.75;entryY=1;entryDx=0;entryDy=0;" parent="1" source="3vfq-Jgj89YRfOBCcQOT-23" target="3vfq-Jgj89YRfOBCcQOT-14" edge="1">
          <mxGeometry width="50" height="50" relative="1" as="geometry">
            <mxPoint x="1000" y="730" as="sourcePoint" />
            <mxPoint x="1000" y="630" as="targetPoint" />
          </mxGeometry>
        </mxCell>
        <mxCell id="3vfq-Jgj89YRfOBCcQOT-35" value="" style="endArrow=none;html=1;exitX=0.5;exitY=0;exitDx=0;exitDy=0;entryX=0.5;entryY=1;entryDx=0;entryDy=0;" parent="1" source="3vfq-Jgj89YRfOBCcQOT-24" target="3vfq-Jgj89YRfOBCcQOT-23" edge="1">
          <mxGeometry width="50" height="50" relative="1" as="geometry">
            <mxPoint x="1010" y="740" as="sourcePoint" />
            <mxPoint x="1010" y="640" as="targetPoint" />
          </mxGeometry>
        </mxCell>
        <mxCell id="3vfq-Jgj89YRfOBCcQOT-57" value="" style="endArrow=classic;html=1;" parent="1" edge="1">
          <mxGeometry width="50" height="50" relative="1" as="geometry">
            <mxPoint x="250" y="390" as="sourcePoint" />
            <mxPoint x="310" y="350" as="targetPoint" />
          </mxGeometry>
        </mxCell>
        <mxCell id="3vfq-Jgj89YRfOBCcQOT-58" value="1" style="text;html=1;align=center;verticalAlign=middle;resizable=0;points=[];autosize=1;" parent="1" vertex="1">
          <mxGeometry x="260" y="355" width="20" height="20" as="geometry" />
        </mxCell>
        <mxCell id="3vfq-Jgj89YRfOBCcQOT-59" value="" style="endArrow=classic;html=1;" parent="1" edge="1">
          <mxGeometry width="50" height="50" relative="1" as="geometry">
            <mxPoint x="380" y="370" as="sourcePoint" />
            <mxPoint x="380" y="420" as="targetPoint" />
          </mxGeometry>
        </mxCell>
        <mxCell id="3vfq-Jgj89YRfOBCcQOT-60" value="1" style="text;html=1;align=center;verticalAlign=middle;resizable=0;points=[];autosize=1;" parent="1" vertex="1">
          <mxGeometry x="380" y="380" width="20" height="20" as="geometry" />
        </mxCell>
        <mxCell id="3vfq-Jgj89YRfOBCcQOT-63" value="" style="endArrow=classic;html=1;" parent="1" edge="1">
          <mxGeometry width="50" height="50" relative="1" as="geometry">
            <mxPoint x="430" y="410" as="sourcePoint" />
            <mxPoint x="430" y="370" as="targetPoint" />
          </mxGeometry>
        </mxCell>
        <mxCell id="3vfq-Jgj89YRfOBCcQOT-64" value="2" style="text;html=1;align=center;verticalAlign=middle;resizable=0;points=[];autosize=1;" parent="1" vertex="1">
          <mxGeometry x="430" y="380" width="20" height="20" as="geometry" />
        </mxCell>
        <mxCell id="3vfq-Jgj89YRfOBCcQOT-65" value="" style="endArrow=classic;html=1;" parent="1" edge="1">
          <mxGeometry width="50" height="50" relative="1" as="geometry">
            <mxPoint x="500" y="360" as="sourcePoint" />
            <mxPoint x="540" y="400" as="targetPoint" />
          </mxGeometry>
        </mxCell>
        <mxCell id="3vfq-Jgj89YRfOBCcQOT-66" value="2" style="text;html=1;align=center;verticalAlign=middle;resizable=0;points=[];autosize=1;" parent="1" vertex="1">
          <mxGeometry x="530" y="360" width="20" height="20" as="geometry" />
        </mxCell>
        <mxCell id="3vfq-Jgj89YRfOBCcQOT-69" value="" style="endArrow=classic;html=1;" parent="1" edge="1">
          <mxGeometry width="50" height="50" relative="1" as="geometry">
            <mxPoint x="730" y="410" as="sourcePoint" />
            <mxPoint x="800" y="340" as="targetPoint" />
          </mxGeometry>
        </mxCell>
        <mxCell id="3vfq-Jgj89YRfOBCcQOT-70" value="3" style="text;html=1;align=center;verticalAlign=middle;resizable=0;points=[];autosize=1;" parent="1" vertex="1">
          <mxGeometry x="747" y="339" width="20" height="20" as="geometry" />
        </mxCell>
        <mxCell id="3vfq-Jgj89YRfOBCcQOT-71" value="" style="endArrow=classic;html=1;" parent="1" edge="1">
          <mxGeometry width="50" height="50" relative="1" as="geometry">
            <mxPoint x="860" y="360" as="sourcePoint" />
            <mxPoint x="860" y="410" as="targetPoint" />
          </mxGeometry>
        </mxCell>
        <mxCell id="3vfq-Jgj89YRfOBCcQOT-72" value="3" style="text;html=1;align=center;verticalAlign=middle;resizable=0;points=[];autosize=1;" parent="1" vertex="1">
          <mxGeometry x="845" y="377" width="20" height="20" as="geometry" />
        </mxCell>
        <mxCell id="3vfq-Jgj89YRfOBCcQOT-75" value="" style="endArrow=classic;html=1;" parent="1" edge="1">
          <mxGeometry width="50" height="50" relative="1" as="geometry">
            <mxPoint x="920" y="410" as="sourcePoint" />
            <mxPoint x="920" y="360" as="targetPoint" />
          </mxGeometry>
        </mxCell>
        <mxCell id="3vfq-Jgj89YRfOBCcQOT-76" value="4" style="text;html=1;align=center;verticalAlign=middle;resizable=0;points=[];autosize=1;" parent="1" vertex="1">
          <mxGeometry x="925" y="384" width="20" height="20" as="geometry" />
        </mxCell>
        <mxCell id="3vfq-Jgj89YRfOBCcQOT-77" value="" style="endArrow=classic;html=1;" parent="1" edge="1">
          <mxGeometry width="50" height="50" relative="1" as="geometry">
            <mxPoint x="980" y="350" as="sourcePoint" />
            <mxPoint x="1050" y="410" as="targetPoint" />
          </mxGeometry>
        </mxCell>
        <mxCell id="3vfq-Jgj89YRfOBCcQOT-78" value="4" style="text;html=1;align=center;verticalAlign=middle;resizable=0;points=[];autosize=1;" parent="1" vertex="1">
          <mxGeometry x="1020" y="355" width="20" height="20" as="geometry" />
        </mxCell>
        <mxCell id="3vfq-Jgj89YRfOBCcQOT-81" value="" style="endArrow=classic;html=1;" parent="1" edge="1">
          <mxGeometry width="50" height="50" relative="1" as="geometry">
            <mxPoint x="1250" y="410" as="sourcePoint" />
            <mxPoint x="1290" y="350" as="targetPoint" />
          </mxGeometry>
        </mxCell>
        <mxCell id="3vfq-Jgj89YRfOBCcQOT-82" value="5" style="text;html=1;align=center;verticalAlign=middle;resizable=0;points=[];autosize=1;" parent="1" vertex="1">
          <mxGeometry x="1254" y="355" width="20" height="20" as="geometry" />
        </mxCell>
        <mxCell id="3vfq-Jgj89YRfOBCcQOT-83" value="" style="endArrow=classic;html=1;" parent="1" edge="1">
          <mxGeometry width="50" height="50" relative="1" as="geometry">
            <mxPoint x="1420" y="350" as="sourcePoint" />
            <mxPoint x="1460" y="400" as="targetPoint" />
          </mxGeometry>
        </mxCell>
        <mxCell id="3vfq-Jgj89YRfOBCcQOT-84" value="5" style="text;html=1;align=center;verticalAlign=middle;resizable=0;points=[];autosize=1;" parent="1" vertex="1">
          <mxGeometry x="1462" y="359" width="20" height="20" as="geometry" />
        </mxCell>
        <mxCell id="3vfq-Jgj89YRfOBCcQOT-88" value="" style="endArrow=classic;html=1;" parent="1" edge="1">
          <mxGeometry width="50" height="50" relative="1" as="geometry">
            <mxPoint x="1480" y="500" as="sourcePoint" />
            <mxPoint x="1480" y="550" as="targetPoint" />
          </mxGeometry>
        </mxCell>
        <mxCell id="3vfq-Jgj89YRfOBCcQOT-89" value="6" style="text;html=1;align=center;verticalAlign=middle;resizable=0;points=[];autosize=1;" parent="1" vertex="1">
          <mxGeometry x="1507" y="520" width="20" height="20" as="geometry" />
        </mxCell>
        <mxCell id="3vfq-Jgj89YRfOBCcQOT-36" value="" style="html=1;whiteSpace=wrap;container=1;collapsible=0;childLayout=tableLayout;" parent="1" vertex="1">
          <mxGeometry x="730" y="620" width="126" height="240" as="geometry" />
        </mxCell>
        <mxCell id="3vfq-Jgj89YRfOBCcQOT-37" value="" style="html=1;whiteSpace=wrap;collapsible=0;dropTarget=0;pointerEvents=0;fillColor=none;strokeColor=none;points=[[0,0.5],[1,0.5]];portConstraint=eastwest;" parent="3vfq-Jgj89YRfOBCcQOT-36" vertex="1">
          <mxGeometry width="126" height="40" as="geometry" />
        </mxCell>
        <mxCell id="3vfq-Jgj89YRfOBCcQOT-38" value="1" style="shape=partialRectangle;html=1;whiteSpace=wrap;connectable=0;fillColor=none;" parent="3vfq-Jgj89YRfOBCcQOT-37" vertex="1">
          <mxGeometry width="64" height="40" as="geometry" />
        </mxCell>
        <mxCell id="3vfq-Jgj89YRfOBCcQOT-39" value="坑洼信息" style="shape=partialRectangle;html=1;whiteSpace=wrap;connectable=0;fillColor=none;" parent="3vfq-Jgj89YRfOBCcQOT-37" vertex="1">
          <mxGeometry x="64" width="62" height="40" as="geometry" />
        </mxCell>
        <mxCell id="3vfq-Jgj89YRfOBCcQOT-41" value="" style="html=1;whiteSpace=wrap;collapsible=0;dropTarget=0;pointerEvents=0;fillColor=none;strokeColor=none;points=[[0,0.5],[1,0.5]];portConstraint=eastwest;" parent="3vfq-Jgj89YRfOBCcQOT-36" vertex="1">
          <mxGeometry y="40" width="126" height="40" as="geometry" />
        </mxCell>
        <mxCell id="3vfq-Jgj89YRfOBCcQOT-42" value="2" style="shape=partialRectangle;html=1;whiteSpace=wrap;connectable=0;fillColor=none;" parent="3vfq-Jgj89YRfOBCcQOT-41" vertex="1">
          <mxGeometry width="64" height="40" as="geometry" />
        </mxCell>
        <mxCell id="3vfq-Jgj89YRfOBCcQOT-43" value="处理后的坑洼信息" style="shape=partialRectangle;html=1;whiteSpace=wrap;connectable=0;fillColor=none;" parent="3vfq-Jgj89YRfOBCcQOT-41" vertex="1">
          <mxGeometry x="64" width="62" height="40" as="geometry" />
        </mxCell>
        <mxCell id="3vfq-Jgj89YRfOBCcQOT-45" value="" style="html=1;whiteSpace=wrap;collapsible=0;dropTarget=0;pointerEvents=0;fillColor=none;strokeColor=none;points=[[0,0.5],[1,0.5]];portConstraint=eastwest;" parent="3vfq-Jgj89YRfOBCcQOT-36" vertex="1">
          <mxGeometry y="80" width="126" height="40" as="geometry" />
        </mxCell>
        <mxCell id="3vfq-Jgj89YRfOBCcQOT-46" value="3" style="shape=partialRectangle;html=1;whiteSpace=wrap;connectable=0;fillColor=none;" parent="3vfq-Jgj89YRfOBCcQOT-45" vertex="1">
          <mxGeometry width="64" height="40" as="geometry" />
        </mxCell>
        <mxCell id="3vfq-Jgj89YRfOBCcQOT-47" value="损害信息" style="shape=partialRectangle;html=1;whiteSpace=wrap;connectable=0;fillColor=none;" parent="3vfq-Jgj89YRfOBCcQOT-45" vertex="1">
          <mxGeometry x="64" width="62" height="40" as="geometry" />
        </mxCell>
        <mxCell id="3vfq-Jgj89YRfOBCcQOT-49" value="" style="html=1;whiteSpace=wrap;collapsible=0;dropTarget=0;pointerEvents=0;fillColor=none;strokeColor=none;points=[[0,0.5],[1,0.5]];portConstraint=eastwest;" parent="3vfq-Jgj89YRfOBCcQOT-36" vertex="1">
          <mxGeometry y="120" width="126" height="40" as="geometry" />
        </mxCell>
        <mxCell id="3vfq-Jgj89YRfOBCcQOT-50" value="4" style="shape=partialRectangle;html=1;whiteSpace=wrap;connectable=0;fillColor=none;" parent="3vfq-Jgj89YRfOBCcQOT-49" vertex="1">
          <mxGeometry width="64" height="40" as="geometry" />
        </mxCell>
        <mxCell id="3vfq-Jgj89YRfOBCcQOT-51" value="完整损害信息" style="shape=partialRectangle;html=1;whiteSpace=wrap;connectable=0;fillColor=none;" parent="3vfq-Jgj89YRfOBCcQOT-49" vertex="1">
          <mxGeometry x="64" width="62" height="40" as="geometry" />
        </mxCell>
        <mxCell id="3vfq-Jgj89YRfOBCcQOT-53" value="" style="html=1;whiteSpace=wrap;collapsible=0;dropTarget=0;pointerEvents=0;fillColor=none;strokeColor=none;points=[[0,0.5],[1,0.5]];portConstraint=eastwest;" parent="3vfq-Jgj89YRfOBCcQOT-36" vertex="1">
          <mxGeometry y="160" width="126" height="40" as="geometry" />
        </mxCell>
        <mxCell id="3vfq-Jgj89YRfOBCcQOT-54" value="5" style="shape=partialRectangle;html=1;whiteSpace=wrap;connectable=0;fillColor=none;" parent="3vfq-Jgj89YRfOBCcQOT-53" vertex="1">
          <mxGeometry width="64" height="40" as="geometry" />
        </mxCell>
        <mxCell id="3vfq-Jgj89YRfOBCcQOT-55" value="坑洼信息表" style="shape=partialRectangle;html=1;whiteSpace=wrap;connectable=0;fillColor=none;" parent="3vfq-Jgj89YRfOBCcQOT-53" vertex="1">
          <mxGeometry x="64" width="62" height="40" as="geometry" />
        </mxCell>
        <mxCell id="3vfq-Jgj89YRfOBCcQOT-85" style="html=1;whiteSpace=wrap;collapsible=0;dropTarget=0;pointerEvents=0;fillColor=none;strokeColor=none;points=[[0,0.5],[1,0.5]];portConstraint=eastwest;" parent="3vfq-Jgj89YRfOBCcQOT-36" vertex="1">
          <mxGeometry y="200" width="126" height="40" as="geometry" />
        </mxCell>
        <mxCell id="3vfq-Jgj89YRfOBCcQOT-86" value="6" style="shape=partialRectangle;html=1;whiteSpace=wrap;connectable=0;fillColor=none;" parent="3vfq-Jgj89YRfOBCcQOT-85" vertex="1">
          <mxGeometry width="64" height="40" as="geometry" />
        </mxCell>
        <mxCell id="3vfq-Jgj89YRfOBCcQOT-87" value="调派单" style="shape=partialRectangle;html=1;whiteSpace=wrap;connectable=0;fillColor=none;" parent="3vfq-Jgj89YRfOBCcQOT-85" vertex="1">
          <mxGeometry x="64" width="62" height="40" as="geometry" />
        </mxCell>
      </root>
    </mxGraphModel>
  </diagram>
</mxfile>
